<svg width="23" height="23" viewBox="0 0 23 23" fill="none" xmlns="http://www.w3.org/2000/svg">
<g clip-path="url(#clip0_752_2190)">
<path d="M17.2502 1.9165C18.2668 1.9165 19.2418 2.32037 19.9607 3.03926C20.6796 3.75815 21.0835 4.73317 21.0835 5.74984V8.62484H19.1668V5.74984C19.1668 5.24151 18.9649 4.75399 18.6055 4.39455C18.246 4.0351 17.7585 3.83317 17.2502 3.83317H5.75016C5.24183 3.83317 4.75432 4.0351 4.39487 4.39455C4.03543 4.75399 3.8335 5.24151 3.8335 5.74984V17.2498C3.8335 17.7582 4.03543 18.2457 4.39487 18.6051C4.75432 18.9646 5.24183 19.1665 5.75016 19.1665H17.2502C17.7585 19.1665 18.246 18.9646 18.6055 18.6051C18.9649 18.2457 19.1668 17.7582 19.1668 17.2498V14.3748H21.0835V17.2498C21.0835 18.2665 20.6796 19.2415 19.9607 19.9604C19.2418 20.6793 18.2668 21.0832 17.2502 21.0832H5.75016C4.7335 21.0832 3.75848 20.6793 3.03959 19.9604C2.3207 19.2415 1.91683 18.2665 1.91683 17.2498V5.74984C1.91683 4.73317 2.3207 3.75815 3.03959 3.03926C3.75848 2.32037 4.7335 1.9165 5.75016 1.9165H17.2502Z" fill="#E00000"/>
<path d="M20.1252 10.5419C20.3793 10.5419 20.6231 10.6428 20.8028 10.8225C20.9825 11.0023 21.0835 11.246 21.0835 11.5002C21.0835 11.7544 20.9825 11.9981 20.8028 12.1778C20.6231 12.3576 20.3793 12.4585 20.1252 12.4585H10.9424L13.3718 14.8889C13.5464 15.0696 13.643 15.3117 13.6408 15.5629C13.6386 15.8142 13.5378 16.0546 13.3601 16.2323C13.1824 16.4099 12.9421 16.5107 12.6908 16.5129C12.4395 16.5151 12.1974 16.4185 12.0167 16.2439L7.99554 12.2228C7.892 12.133 7.80897 12.022 7.75206 11.8973C7.69515 11.7727 7.6657 11.6372 7.6657 11.5002C7.6657 11.3631 7.69515 11.2277 7.75206 11.103C7.80897 10.9784 7.892 10.8674 7.99554 10.7776L12.0177 6.75644C12.1061 6.6649 12.2118 6.5919 12.3287 6.54167C12.4457 6.49145 12.5714 6.46501 12.6987 6.4639C12.8259 6.4628 12.9521 6.48704 13.0699 6.53523C13.1876 6.58342 13.2946 6.65458 13.3846 6.74456C13.4746 6.83454 13.5458 6.94154 13.594 7.05931C13.6421 7.17709 13.6664 7.30328 13.6653 7.43053C13.6642 7.55777 13.6377 7.68353 13.5875 7.80045C13.5373 7.91737 13.4643 8.02312 13.3727 8.11152L10.9424 10.5419H20.1252Z" fill="#E00000"/>
</g>
<defs>
<clipPath id="clip0_752_2190">
<rect width="23" height="23" fill="white" transform="matrix(-1 0 0 1 23 0)"/>
</clipPath>
</defs>
</svg>
