<svg width="22" height="21" viewBox="0 0 22 21" fill="none" xmlns="http://www.w3.org/2000/svg">
<path d="M3.15421 18.7946H4.70113L14.2312 9.26451L12.6843 7.7176L3.15421 17.2477V18.7946ZM18.9548 7.66235L14.2588 3.02161L15.8058 1.4747C16.2293 1.05114 16.7497 0.839355 17.367 0.839355C17.9836 0.839355 18.5037 1.05114 18.9272 1.4747L20.4741 3.02161C20.8977 3.44517 21.1187 3.95639 21.1371 4.55526C21.1555 5.1534 20.9529 5.66425 20.5294 6.08781L18.9548 7.66235ZM17.3527 9.29214L5.64033 21.0045H0.944336V16.3085L12.6567 4.59615L17.3527 9.29214ZM13.4578 8.49106L12.6843 7.7176L14.2312 9.26451L13.4578 8.49106Z" fill="white"/>
</svg>
