<svg width="51" height="50" viewBox="0 0 51 50" fill="none" xmlns="http://www.w3.org/2000/svg">
<path fill-rule="evenodd" clip-rule="evenodd" d="M20.9653 11.5875L32.2413 16.6607C35.6691 18.2028 38.3667 19.4165 40.1968 20.5658C42.0043 21.7011 43.4168 23.047 43.4168 25C43.4168 26.953 42.0043 28.299 40.1968 29.4342C38.3667 30.5835 35.6691 31.7972 32.2414 33.3393L20.9653 38.4125C18.8703 39.3551 17.2405 40.0884 15.9678 40.5643C14.7225 41.03 13.6095 41.3358 12.6199 41.2282C10.2195 40.9671 8.15405 39.3211 7.65415 36.9973C7.44228 36.0124 7.73854 34.9106 8.16419 33.766C8.60491 32.5809 9.30538 31.0593 10.1978 29.1208L10.2218 29.0686C10.9193 27.5535 11.1877 26.9557 11.3246 26.3593C11.5306 25.4621 11.5306 24.5379 11.3246 23.6407C11.1877 23.0443 10.9193 22.4465 10.2218 20.9314L10.1978 20.8792C9.30538 18.9407 8.60491 17.419 8.16419 16.234C7.73854 15.0894 7.44228 13.9876 7.65415 13.0027C8.15405 10.6789 10.2195 9.03286 12.6199 8.77183C13.6095 8.66422 14.7225 8.97005 15.9678 9.43573C17.2405 9.91161 18.8703 10.6449 20.9653 11.5875ZM15.0922 11.7774C13.8686 11.3198 13.2435 11.2188 12.8902 11.2572C11.4101 11.4181 10.3412 12.3992 10.0982 13.5285C10.053 13.7386 10.0846 14.2257 10.5074 15.3625C10.9112 16.4483 11.5712 17.884 12.4928 19.886C12.5129 19.9299 12.5329 19.9732 12.5526 20.016C13.171 21.3589 13.5594 22.2023 13.7612 23.0812C14.0518 24.3466 14.0518 25.6534 13.7612 26.9188C13.5594 27.7977 13.171 28.6412 12.5526 29.984C12.5329 30.0268 12.5129 30.0701 12.4928 30.114C11.5712 32.116 10.9112 33.5517 10.5074 34.6375C10.0846 35.7743 10.053 36.2614 10.0982 36.4715C10.3412 37.6008 11.4101 38.5819 12.8902 38.7428C13.2435 38.7812 13.8686 38.6802 15.0922 38.2226C16.2794 37.7787 17.8351 37.0795 19.9847 36.1123L31.1145 31.1049C34.665 29.5075 37.202 28.3628 38.8671 27.3171C40.5727 26.2459 40.9168 25.5501 40.9168 25C40.9168 24.45 40.5727 23.7541 38.8671 22.683C37.202 21.6372 34.665 20.4925 31.1145 18.8951L19.9847 13.8877C17.8351 12.9205 16.2794 12.2213 15.0922 11.7774Z" fill="#C79479"/>
</svg>
